<svg xmlns="http://www.w3.org/2000/svg" xmlns:xlink="http://www.w3.org/1999/xlink" version="1.1" x="0px" y="0px" viewBox="0 0 100 125" style="enable-background:new 0 0 100 100;" xml:space="preserve"><g><path d="M65.4,35.1l2.9,3.2l9.9-9.5l-2.9-2.9c-4.6-4.4-10.5-7.6-17.7-8.6V9H44.8v8.2C33,18.9,25,26.4,25,36.1   c0,12.2,10.5,16,19.8,18.5v15.6c-5.5-1.5-9-4.4-10.9-6.3l-2.9-2.9l-9.5,9.7l2.7,2.9c5,5.3,12.2,8.8,20.6,9.9v8h12.8v-8   c14.9-2.3,20.2-11.8,20.2-19.8c0-13.2-11.6-17.4-20.2-19.8v-13C60.5,31.3,63.3,32.8,65.4,35.1z M57.4,69.7v-12   c5,1.9,6.1,3.6,6.1,5.9C63.5,66.4,61.2,68.7,57.4,69.7z M44.5,30v9.9c-4-1.3-5.5-2.7-5.5-4.4C39.1,33.2,41.2,31.1,44.5,30z"/></g><text x="0" y="115" fill="#000000" font-size="5px" font-weight="bold" font-family="'Helvetica Neue', Helvetica, Arial-Unicode, Arial, Sans-serif">Created by Gagana</text><text x="0" y="120" fill="#000000" font-size="5px" font-weight="bold" font-family="'Helvetica Neue', Helvetica, Arial-Unicode, Arial, Sans-serif">from the Noun Project</text></svg>